<?xml version="1.0" encoding="utf-8"?>
<!-- Generator: Adobe Illustrator 19.0.0, SVG Export Plug-In . SVG Version: 6.00 Build 0)  -->
<svg version="1.1" id="Layer_1" xmlns="http://www.w3.org/2000/svg" xmlns:xlink="http://www.w3.org/1999/xlink" x="0px" y="0px"
	 viewBox="-479.6 228.9 101.9 103.4" style="enable-background:new -479.6 228.9 101.9 103.4;" xml:space="preserve">
<style type="text/css">
	.st0{fill:#FFFFFF;}
</style>
<g>
	<g>
		<g>
			<g>
				<path class="st0" d="M-436.5,264.2v34l29.5-17L-436.5,264.2z M-439.9,304.1v-45.8l39.7,22.9L-439.9,304.1z"/>
				<path class="st0" d="M-444.2,268.2v25.9l22.4-12.9L-444.2,268.2z M-447.4,299.7v-37l32,18.5L-447.4,299.7z"/>
			</g>
		</g>
		<path class="st0" d="M-427.9,234.2c-26,0-47,21-47,47s21,47,47,47c26,0,47-21,47-47S-401.9,234.2-427.9,234.2z M-384.9,281.2
			c0,23.7-19.3,42.9-42.9,42.9c-23.7,0-42.9-19.3-42.9-42.9s19.3-42.9,42.9-42.9C-404.2,238.2-384.9,257.5-384.9,281.2z"/>
	</g>
</g>
</svg>
